<svg xmlns="http://www.w3.org/2000/svg" viewBox="0 0 100 100" width="100" height="100"><defs>
    <radialGradient id="mgo" cx="50%" cy="40%" r="58%"><stop offset="0%" stop-color="#ff9c30" stop-opacity="0.5"></stop><stop offset="46%" stop-color="#ff9c30" stop-opacity="0.15"></stop><stop offset="100%" stop-color="#ff9c30" stop-opacity="0"></stop></radialGradient>
    <radialGradient id="mhot" cx="50%" cy="50%" r="50%"><stop offset="0%" stop-color="#ffe9a6" stop-opacity="0.95"></stop><stop offset="55%" stop-color="#ff9f38" stop-opacity="0.3"></stop><stop offset="100%" stop-color="#ff9f38" stop-opacity="0"></stop></radialGradient>
    <linearGradient id="mbi" x1="0" y1="0" x2="0" y2="1"><stop offset="0%" stop-color="#fff6e0"></stop><stop offset="100%" stop-color="#d9b46a"></stop></linearGradient>
    <linearGradient id="mbo" x1="0" y1="0" x2="0" y2="1"><stop offset="0%" stop-color="#d9b46a"></stop><stop offset="100%" stop-color="#a87f38"></stop></linearGradient>
    <linearGradient id="mca" x1="0" y1="0" x2="1" y2="0"><stop offset="0%" stop-color="#c7a566"></stop><stop offset="38%" stop-color="#fff6e2"></stop><stop offset="100%" stop-color="#c7a566"></stop></linearGradient>
    <linearGradient id="mfl" x1="0.5" y1="0" x2="0.5" y2="1"><stop offset="0%" stop-color="#ffe9a6"></stop><stop offset="42%" stop-color="#ff9f38"></stop><stop offset="100%" stop-color="#ff7716"></stop></linearGradient>
    <linearGradient id="mco" x1="0.5" y1="0" x2="0.5" y2="1"><stop offset="0%" stop-color="#fff7dc"></stop><stop offset="100%" stop-color="#ffe9a6"></stop></linearGradient>
    <filter id="msf" x="-60%" y="-60%" width="220%" height="220%"><feGaussianBlur stdDeviation="1.3"></feGaussianBlur></filter>
  </defs><rect x="-10" y="-10" width="120" height="120" fill="url(#mgo)"></rect><ellipse cx="50" cy="36" rx="17" ry="20" fill="url(#mhot)"></ellipse><rect x="22.8" y="55" width="7.4" height="16" rx="3.7" fill="url(#mbo)"></rect><rect x="23.900000000000002" y="56.2" width="1.5" height="13" rx="0.75" fill="#fff6e0" opacity="0.22"></rect><rect x="34.55" y="47" width="7.4" height="24" rx="3.7" fill="url(#mbi)"></rect><rect x="35.65" y="48.2" width="1.5" height="21" rx="0.75" fill="#fff6e0" opacity="0.34"></rect><rect x="58.05" y="47" width="7.4" height="24" rx="3.7" fill="url(#mbi)"></rect><rect x="59.15" y="48.2" width="1.5" height="21" rx="0.75" fill="#fff6e0" opacity="0.34"></rect><rect x="69.8" y="55" width="7.4" height="16" rx="3.7" fill="url(#mbo)"></rect><rect x="70.89999999999999" y="56.2" width="1.5" height="13" rx="0.75" fill="#fff6e0" opacity="0.22"></rect><rect x="45.8" y="41" width="8.4" height="30" rx="4.2" fill="url(#mca)"></rect><rect x="47.099999999999994" y="42.4" width="1.7" height="26.6" rx="0.85" fill="#fff6e2" opacity="0.6"></rect><ellipse cx="50" cy="41" rx="4.2" ry="1.5" fill="#fff6e2" opacity="0.75"></ellipse><line x1="50" y1="40.5" x2="50" y2="38" stroke="#7c5826" stroke-width="1.1" stroke-linecap="round"></line><path d="M50 24 C53.182 28.48 54.3 32.8 52.236 39.36 Q50 40.96 47.764 39.36 C45.7 32.8 46.818 28.48 50 24 Z" fill="url(#mfl)" filter="url(#msf)"></path><path d="M50 29.44 C51.3244 32.1024 51.892 34.432 50.8514 37.76 Q50 38.3424 49.1486 37.76 C48.108 34.432 48.6756 32.1024 50 29.44 Z" fill="url(#mco)"></path></svg>